<mxfile host="app.diagrams.net" agent="Mozilla/5.0 (Macintosh; Intel Mac OS X 10_15_7) AppleWebKit/537.36 (KHTML, like Gecko) Chrome/136.0.0.0 Safari/537.36" version="27.0.3">
  <diagram name="Page-1" id="ZDCLu-y56aeZgeWTM7MD">
    <mxGraphModel dx="2066" dy="1184" grid="0" gridSize="10" guides="1" tooltips="1" connect="1" arrows="1" fold="1" page="0" pageScale="1" pageWidth="827" pageHeight="1169" math="0" shadow="0">
      <root>
        <mxCell id="0" />
        <mxCell id="1" parent="0" />
        <mxCell id="xcm80XLx0kcgi8CTV2tB-6" style="edgeStyle=orthogonalEdgeStyle;rounded=0;orthogonalLoop=1;jettySize=auto;html=1;exitX=0.5;exitY=0.5;exitDx=0;exitDy=0;exitPerimeter=0;entryX=0;entryY=0.5;entryDx=0;entryDy=0;endArrow=none;endFill=0;" parent="1" source="xcm80XLx0kcgi8CTV2tB-1" target="xcm80XLx0kcgi8CTV2tB-2" edge="1">
          <mxGeometry relative="1" as="geometry" />
        </mxCell>
        <mxCell id="xcm80XLx0kcgi8CTV2tB-1" value="Пользователь" style="shape=umlActor;html=1;verticalLabelPosition=bottom;verticalAlign=top;align=center;" parent="1" vertex="1">
          <mxGeometry x="200" y="370" width="30" height="60" as="geometry" />
        </mxCell>
        <mxCell id="xcm80XLx0kcgi8CTV2tB-2" value="Просмотреть&amp;nbsp;&lt;div&gt;доступные продукты&lt;/div&gt;" style="ellipse;whiteSpace=wrap;html=1;" parent="1" vertex="1">
          <mxGeometry x="290" y="365" width="140" height="70" as="geometry" />
        </mxCell>
        <mxCell id="xcm80XLx0kcgi8CTV2tB-3" value="Выбрать продукты" style="ellipse;whiteSpace=wrap;html=1;" parent="1" vertex="1">
          <mxGeometry x="520" y="365" width="140" height="70" as="geometry" />
        </mxCell>
        <mxCell id="xcm80XLx0kcgi8CTV2tB-4" value="Оформить заказ" style="ellipse;whiteSpace=wrap;html=1;" parent="1" vertex="1">
          <mxGeometry x="760" y="365" width="140" height="70" as="geometry" />
        </mxCell>
        <mxCell id="xcm80XLx0kcgi8CTV2tB-5" value="Подтверждение" style="ellipse;whiteSpace=wrap;html=1;" parent="1" vertex="1">
          <mxGeometry x="990" y="365" width="140" height="70" as="geometry" />
        </mxCell>
        <mxCell id="xcm80XLx0kcgi8CTV2tB-9" value="include" style="endArrow=open;endSize=12;dashed=1;html=1;rounded=0;exitX=1;exitY=0.5;exitDx=0;exitDy=0;entryX=0;entryY=0.5;entryDx=0;entryDy=0;" parent="1" source="xcm80XLx0kcgi8CTV2tB-2" target="xcm80XLx0kcgi8CTV2tB-3" edge="1">
          <mxGeometry width="160" relative="1" as="geometry">
            <mxPoint x="440" y="330" as="sourcePoint" />
            <mxPoint x="600" y="330" as="targetPoint" />
          </mxGeometry>
        </mxCell>
        <mxCell id="xcm80XLx0kcgi8CTV2tB-10" value="include" style="endArrow=open;endSize=12;dashed=1;html=1;rounded=0;exitX=1;exitY=0.5;exitDx=0;exitDy=0;entryX=0;entryY=0.5;entryDx=0;entryDy=0;" parent="1" source="xcm80XLx0kcgi8CTV2tB-3" target="xcm80XLx0kcgi8CTV2tB-4" edge="1">
          <mxGeometry width="160" relative="1" as="geometry">
            <mxPoint x="700" y="282" as="sourcePoint" />
            <mxPoint x="790" y="280" as="targetPoint" />
          </mxGeometry>
        </mxCell>
        <mxCell id="xcm80XLx0kcgi8CTV2tB-11" value="include" style="endArrow=open;endSize=12;dashed=1;html=1;rounded=0;exitX=1;exitY=0.5;exitDx=0;exitDy=0;entryX=0;entryY=0.5;entryDx=0;entryDy=0;" parent="1" source="xcm80XLx0kcgi8CTV2tB-4" target="xcm80XLx0kcgi8CTV2tB-5" edge="1">
          <mxGeometry width="160" relative="1" as="geometry">
            <mxPoint x="930" y="452" as="sourcePoint" />
            <mxPoint x="1020" y="450" as="targetPoint" />
          </mxGeometry>
        </mxCell>
        <mxCell id="xcm80XLx0kcgi8CTV2tB-13" style="edgeStyle=orthogonalEdgeStyle;rounded=0;orthogonalLoop=1;jettySize=auto;html=1;exitX=0.5;exitY=0.5;exitDx=0;exitDy=0;exitPerimeter=0;entryX=0.5;entryY=0;entryDx=0;entryDy=0;endArrow=none;endFill=0;" parent="1" source="xcm80XLx0kcgi8CTV2tB-12" target="xcm80XLx0kcgi8CTV2tB-5" edge="1">
          <mxGeometry relative="1" as="geometry" />
        </mxCell>
        <mxCell id="xcm80XLx0kcgi8CTV2tB-12" value="Менеджер" style="shape=umlActor;html=1;verticalLabelPosition=bottom;verticalAlign=top;align=center;" parent="1" vertex="1">
          <mxGeometry x="210" y="190" width="30" height="60" as="geometry" />
        </mxCell>
      </root>
    </mxGraphModel>
  </diagram>
</mxfile>
